<svg xmlns="http://www.w3.org/2000/svg" viewBox="0 7.650000095367432 205.25 36.849998474121094" data-asc="0.878" width="205.25" height="36.849998474121094"><defs/><g fill="#000000"><g transform="translate(0, 0)"><path d="M14.90 9.50Q32.95 9.50 32.95 26.70Q32.95 43.90 14.90 43.90L0 43.90L0 9.50L14.90 9.50M11.05 35.65L14.70 35.65Q21.65 35.65 21.65 28.20L21.65 25.20Q21.65 17.75 14.70 17.75L11.05 17.75L11.05 35.65ZM38.55 14.40L38.55 7.65L48.50 7.65L48.50 14.40L38.55 14.40M38.55 43.90L38.55 17.50L48.50 17.50L48.50 43.90L38.55 43.90ZM89.90 16.90Q94.40 16.90 96.65 19.47Q98.90 22.05 98.90 26.80L98.90 43.90L88.95 43.90L88.95 28Q88.95 26.30 88.13 25.27Q87.30 24.25 85.80 24.25Q84.05 24.25 82.95 25.45Q81.85 26.65 81.85 28.40L81.85 43.90L71.90 43.90L71.90 28Q71.90 26.30 71.08 25.27Q70.25 24.25 68.75 24.25Q67.00 24.25 65.90 25.45Q64.80 26.65 64.80 28.40L64.80 43.90L54.85 43.90L54.85 17.50L63.00 17.50L63.65 21.45Q65.15 19.35 67.63 18.12Q70.10 16.90 72.85 16.90Q78.80 16.90 80.85 21.45Q82.40 19.35 84.83 18.12Q87.25 16.90 89.90 16.90ZM117.90 16.90Q123.95 16.90 127.75 18.92Q131.55 20.95 131.55 25.50L131.55 35.80Q131.55 36.65 131.95 37.20Q132.35 37.75 133.15 37.75L134.95 37.75L134.95 43.50Q134.80 43.60 134.18 43.82Q133.55 44.05 132.40 44.27Q131.25 44.50 129.75 44.50Q126.85 44.50 124.98 43.63Q123.10 42.75 122.40 41.20Q120.50 42.70 118.15 43.60Q115.80 44.50 112.65 44.50Q103.35 44.50 103.35 37.10Q103.35 33.25 105.43 31.22Q107.50 29.20 111.40 28.45Q115.30 27.70 121.60 27.70L121.60 26.40Q121.60 24.85 120.53 24.05Q119.45 23.25 117.75 23.25Q116.20 23.25 115.08 23.80Q113.95 24.35 113.95 25.55L113.95 25.75L104.15 25.75Q104.10 25.50 104.10 25.05Q104.10 21.30 107.68 19.10Q111.25 16.90 117.90 16.90M121.60 32.40Q117.35 32.40 115.33 33.32Q113.30 34.25 113.30 35.80Q113.30 38.30 116.70 38.30Q118.65 38.30 120.13 37.25Q121.60 36.20 121.60 34.65L121.60 32.40ZM155.80 17.50L155.80 24.25L150.20 24.25L150.20 34.30Q150.20 36.10 150.80 36.92Q151.40 37.75 153.00 37.75L155.80 37.75L155.80 43.60Q154.60 44 152.70 44.25Q150.80 44.50 149.40 44.50Q145.00 44.50 142.63 42.90Q140.25 41.30 140.25 37.45L140.25 24.25L136.55 24.25L136.55 17.50L140.65 17.50L142.80 9.50L150.20 9.50L150.20 17.50L155.80 17.50ZM160.75 14.40L160.75 7.65L170.70 7.65L170.70 14.40L160.75 14.40M160.75 43.90L160.75 17.50L170.70 17.50L170.70 43.90L160.75 43.90ZM190.70 16.90Q197.20 16.90 201.23 19.67Q205.25 22.45 205.25 28.15L195.60 28.15Q195.60 23.65 190.70 23.65Q185.80 23.65 185.80 29.30L185.80 32.15Q185.80 37.75 190.90 37.75Q196.00 37.75 196.00 33.15L205.25 33.15Q205.25 38.90 201.23 41.70Q197.20 44.50 190.70 44.50Q183.75 44.50 179.80 41Q175.85 37.50 175.85 30.70Q175.85 23.90 179.80 20.40Q183.75 16.90 190.70 16.90Z"/></g></g></svg>